<?xml version="1.0" encoding="utf-8"?>
<!-- Generator: Adobe Illustrator 16.0.0, SVG Export Plug-In . SVG Version: 6.00 Build 0)  -->
<!DOCTYPE svg PUBLIC "-//W3C//DTD SVG 1.1//EN" "http://www.w3.org/Graphics/SVG/1.1/DTD/svg11.dtd">
<svg version="1.1" id="Ebene_1" xmlns="http://www.w3.org/2000/svg" xmlns:xlink="http://www.w3.org/1999/xlink" x="0px" y="0px"
	 width="398px" height="144.334px" viewBox="0 0 398 144.334" enable-background="new 0 0 398 144.334" xml:space="preserve">
<g>
	<path fill="#8B7601" d="M66.566,87.251c4.036,3.976,8.703,7.02,14.006,9.127c5.301,2.107,10.782,3.162,16.446,3.162
		c5.661,0,11.113-1.055,16.355-3.162c5.24-2.107,9.877-5.151,13.915-9.127c4.035-3.976,7.257-8.883,9.669-14.728
		c2.408-5.842,3.614-12.499,3.614-19.97c0-7.469-1.206-14.125-3.614-19.97c-2.412-5.842-5.634-10.753-9.669-14.729
		c-4.038-3.976-8.675-7.016-13.915-9.125c-5.242-2.107-10.695-3.163-16.355-3.163c-5.665,0-11.146,1.056-16.446,3.163
		c-5.303,2.109-9.97,5.15-14.006,9.125c-4.037,3.976-7.259,8.887-9.667,14.729c-2.412,5.845-3.616,12.501-3.616,19.97
		c0,7.471,1.204,14.127,3.616,19.97C59.307,78.368,62.529,83.276,66.566,87.251z M84.639,33.94c2.711-4.578,6.836-6.867,12.38-6.867
		c5.42,0,9.515,2.29,12.289,6.867c2.77,4.58,4.156,10.784,4.156,18.614c0,7.833-1.386,14.037-4.156,18.614
		c-2.773,4.58-6.868,6.867-12.289,6.867c-5.543,0-9.669-2.287-12.38-6.867c-2.711-4.578-4.066-10.781-4.066-18.614
		C80.572,44.724,81.928,38.52,84.639,33.94z"/>
	<path fill="#8B7601" d="M237.344,116.257c2.351-3.916,3.524-8.222,3.524-12.921c0-8.07-2.921-13.885-8.765-17.439
		c-5.844-3.553-14.306-5.331-25.39-5.331h-14.457c-5.062,0-8.584-0.543-10.574-1.627c-1.985-1.083-2.98-2.77-2.98-5.06
		c0-1.565,0.24-2.83,0.723-3.795c0.478-0.963,1.324-1.925,2.53-2.891c3.733,1.206,7.346,1.807,10.842,1.807
		c4.941,0,9.549-0.601,13.827-1.807c4.275-1.204,8.011-3.042,11.204-5.513c3.191-2.467,5.692-5.602,7.501-9.396
		c1.807-3.796,2.711-8.283,2.711-13.464c0-2.408-0.272-4.636-0.813-6.687c-0.544-2.046-1.235-3.733-2.079-5.059h14.275V7.735
		h-32.708c-3.976-1.446-8.616-2.169-13.917-2.169c-4.819,0-9.457,0.664-13.913,1.988c-4.461,1.327-8.403,3.343-11.839,6.054
		c-3.432,2.711-6.174,6.085-8.221,10.121c-2.049,4.037-3.074,8.764-3.074,14.186c0,5.303,1.235,9.97,3.707,14.006
		c2.466,4.039,5.27,7.138,8.402,9.307v0.723c-2.892,2.049-5.302,4.548-7.229,7.5c-1.929,2.954-2.89,6.054-2.89,9.307
		c0,3.735,0.779,6.808,2.348,9.216c1.563,2.412,3.552,4.4,5.963,5.964v0.723c-8.557,4.818-12.832,10.844-12.832,18.073
		c0,3.976,0.963,7.409,2.892,10.301c1.927,2.891,4.608,5.241,8.042,7.048c3.434,1.807,7.41,3.162,11.927,4.065
		c4.518,0.904,9.425,1.355,14.729,1.355c7.707,0,14.639-0.812,20.781-2.439c6.146-1.627,11.388-3.858,15.722-6.687
		C231.653,123.546,234.996,120.171,237.344,116.257z M184.034,27.073c2.351-2.41,5.268-3.615,8.763-3.615
		c3.495,0,6.417,1.238,8.765,3.705c2.351,2.471,3.525,6.055,3.525,10.753c0,5.061-1.174,8.827-3.525,11.295
		c-2.348,2.471-5.27,3.705-8.765,3.705c-3.496,0-6.413-1.234-8.763-3.705c-2.351-2.468-3.525-6.234-3.525-11.295
		C180.509,33.098,181.683,29.483,184.034,27.073z M209.786,115.716c-3.855,2.106-8.797,3.162-14.817,3.162
		c-6.027,0-10.844-0.875-14.459-2.621c-3.615-1.748-5.419-4.309-5.419-7.681c0-3.013,1.625-5.964,4.878-8.855
		c1.446,0.362,3.133,0.632,5.059,0.812c1.927,0.182,4.457,0.272,7.591,0.272h9.216c4.457,0,7.861,0.479,10.209,1.445
		c2.351,0.963,3.524,2.83,3.524,5.602C215.568,110.986,213.642,113.606,209.786,115.716z"/>
	<path fill="#8B7601" d="M260.117,87.251c4.036,3.976,8.703,7.02,14.006,9.127c5.301,2.107,10.782,3.162,16.446,3.162
		c5.661,0,11.113-1.055,16.355-3.162c5.24-2.107,9.877-5.151,13.915-9.127c4.035-3.976,7.257-8.883,9.669-14.728
		c2.408-5.842,3.614-12.499,3.614-19.97c0-7.469-1.206-14.125-3.614-19.97c-2.412-5.842-5.634-10.753-9.669-14.729
		c-4.038-3.976-8.675-7.016-13.915-9.125c-5.242-2.107-10.694-3.163-16.355-3.163c-5.664,0-11.146,1.056-16.446,3.163
		c-5.303,2.109-9.97,5.15-14.006,9.125c-4.037,3.976-7.259,8.887-9.667,14.729c-2.412,5.845-3.615,12.501-3.615,19.97
		c0,7.471,1.203,14.127,3.615,19.97C252.858,78.368,256.08,83.276,260.117,87.251z M278.189,33.94
		c2.711-4.578,6.837-6.867,12.38-6.867c5.421,0,9.516,2.29,12.289,6.867c2.77,4.58,4.156,10.784,4.156,18.614
		c0,7.833-1.387,14.037-4.156,18.614c-2.773,4.58-6.868,6.867-12.289,6.867c-5.543,0-9.669-2.287-12.38-6.867
		c-2.711-4.578-4.066-10.781-4.066-18.614C274.123,44.724,275.478,38.52,278.189,33.94z"/>
	<path fill="#8B7601" d="M192.618,108.336c-2.619,0-4.823-0.06-6.696-0.181c-0.561-0.037-1.099-0.076-1.6-0.124
		c-0.511-0.048-1.007-0.101-1.49-0.159c-0.06,0.119-0.052,0.184-0.086,0.283c-0.05,0.148-0.127,0.32-0.127,0.421
		c-0.021,0.111,0.229,0.447,1.169,0.902c2.531,1.222,6.398,1.869,11.18,1.869c4.716,0,8.487-0.754,11.209-2.24
		c0.286-0.157,0.535-0.307,0.749-0.446c-1.165-0.18-2.811-0.325-5.091-0.325H192.618z"/>
	<path fill="#8B7601" d="M149.845,127.209c-2.755-4.131-4.153-9.003-4.153-14.475c0-1.417,0.131-2.96,0.438-4.579
		c-47.277,0-82.725,0-82.924,0c-15.493,0-24.993,0-25.1,0c-1.084,0-2.141-0.542-3.163-1.626c-1.025-1.085-1.536-3.01-1.536-5.782
		V5.827H6.84v98.854c0,4.58,0.42,8.706,1.265,12.38c0.841,3.675,2.196,6.807,4.067,9.396c1.866,2.592,4.365,4.608,7.499,6.054
		c3.131,1.446,6.986,2.168,11.566,2.168c0.52,0,9.918,0,25.1,0c1.101,0,45.297,0,100.919,0
		C154.266,132.605,151.775,130.108,149.845,127.209z"/>
	<path fill="#8B7601" d="M356.194,108.155c-6.383,0-13.629,0-21.606,0c-24.121,0-54.686,0-86.535,0
		c-0.608,4.251-2.023,8.267-4.25,11.976c-2.932,4.884-7.093,9.106-12.37,12.551c-1.077,0.704-2.226,1.359-3.397,1.998
		c39.035,0,77.492,0,106.553,0c8.607,0,16.367,0,23.095,0c-2.96-4.098-4.482-8.901-4.482-14.349
		C353.2,115.808,354.218,111.741,356.194,108.155z"/>
	<polygon fill="#8B7601" points="385.488,93.042 390.187,5 363.441,5 368.14,93.042 	"/>
	<path fill="#8B7601" d="M388.29,108.313c-3.072-3.191-6.898-4.79-11.475-4.79c-4.582,0-8.404,1.598-11.477,4.79
		c-3.072,3.194-4.608,7.201-4.608,12.018c0,4.698,1.536,8.646,4.608,11.837c3.072,3.19,6.895,4.788,11.477,4.788
		c4.576,0,8.402-1.598,11.475-4.788c3.072-3.191,4.608-7.139,4.608-11.837C392.898,115.514,391.362,111.507,388.29,108.313z"/>
</g>
</svg>
